<svg width="2116" height="575" viewBox="0 0 2116 575" fill="none" xmlns="http://www.w3.org/2000/svg">
<g clip-path="url(#clip0_4292_378)">
<path d="M936.864 135.387V194.573H856.516V438.639H782.64V194.573H702.292V135.387H936.839H936.864Z" fill="#00091A"/>
<path d="M1054.36 206.441C1067.33 198.821 1081.72 194.998 1097.56 194.998V273.172H1077.25C1058.81 273.172 1044.99 277.144 1035.77 285.039C1026.56 292.959 1021.96 306.85 1021.96 326.712V438.589H948.082V197.546H1021.96V237.72C1030.6 224.479 1041.4 214.036 1054.36 206.416V206.441Z" fill="#00091A"/>
<path d="M1121.09 161.07C1112.9 153.45 1108.78 144.006 1108.78 132.789C1108.78 121.571 1112.87 111.702 1121.09 104.057C1129.31 96.4373 1139.88 92.6147 1152.85 92.6147C1165.81 92.6147 1175.96 96.4373 1184.15 104.057C1192.37 111.702 1196.47 121.271 1196.47 132.789C1196.47 144.306 1192.37 153.45 1184.15 161.07C1175.96 168.715 1165.51 172.513 1152.85 172.513C1140.18 172.513 1129.31 168.69 1121.09 161.07ZM1189.55 197.571V438.614H1115.67V197.571H1189.55Z" fill="#00091A"/>
<path d="M1329.51 204.492C1342.47 197.571 1357.29 194.124 1374 194.124C1393.87 194.124 1411.88 199.17 1427.99 209.239C1444.11 219.332 1456.85 233.723 1466.22 252.436C1475.56 271.148 1480.26 292.909 1480.26 317.668C1480.26 342.427 1475.59 364.263 1466.22 383.1C1456.85 401.963 1444.11 416.504 1427.99 426.722C1411.85 436.94 1393.87 442.062 1374 442.062C1357.02 442.062 1342.17 438.664 1329.51 431.919C1316.84 425.148 1306.9 416.154 1299.7 404.911V438.614H1225.83V118.973H1299.7V231.724C1306.62 220.481 1316.54 211.412 1329.51 204.517V204.492ZM1389.77 274.246C1379.55 263.728 1366.93 258.482 1351.97 258.482C1337 258.482 1324.84 263.803 1314.59 274.471C1304.37 285.139 1299.25 299.68 1299.25 318.093C1299.25 336.506 1304.37 351.071 1314.59 361.714C1324.81 372.382 1337.28 377.704 1351.97 377.704C1366.66 377.704 1379.18 372.307 1389.54 361.514C1399.91 350.721 1405.08 336.106 1405.08 317.668C1405.08 299.23 1399.96 284.765 1389.74 274.246H1389.77Z" fill="#00091A"/>
<path d="M1605.53 204.492C1618.49 197.571 1633.31 194.124 1650.02 194.124C1669.89 194.124 1687.9 199.17 1704.01 209.239C1720.13 219.332 1732.87 233.723 1742.24 252.436C1751.58 271.148 1756.28 292.909 1756.28 317.668C1756.28 342.427 1751.61 364.263 1742.24 383.1C1732.87 401.963 1720.13 416.504 1704.01 426.722C1687.87 436.94 1669.89 442.062 1650.02 442.062C1633.03 442.062 1618.19 438.664 1605.53 431.919C1592.86 425.148 1582.92 416.154 1575.72 404.911V438.614H1501.85V118.973H1575.72V231.724C1582.64 220.481 1592.56 211.412 1605.53 204.517V204.492ZM1665.79 274.246C1655.57 263.728 1642.95 258.482 1627.99 258.482C1613.02 258.482 1600.86 263.803 1590.61 274.471C1580.39 285.139 1575.27 299.68 1575.27 318.093C1575.27 336.506 1580.39 351.071 1590.61 361.714C1600.83 372.382 1613.3 377.704 1627.99 377.704C1642.68 377.704 1655.2 372.307 1665.56 361.514C1675.93 350.721 1681.1 336.106 1681.1 317.668C1681.1 299.23 1675.98 284.765 1665.76 274.246H1665.79Z" fill="#00091A"/>
<path d="M1851.74 118.973V438.614H1777.87V118.973H1851.74Z" fill="#00091A"/>
<path d="M2113.95 335.806H1946.78C1947.93 350.771 1952.75 362.239 1961.25 370.159C1969.74 378.079 1980.18 382.026 1992.55 382.026C2010.96 382.026 2023.81 374.256 2031 358.691H2109.62C2105.58 374.531 2098.31 388.797 2087.81 401.463C2077.3 414.13 2064.13 424.074 2048.29 431.269C2032.45 438.464 2014.74 442.062 1995.15 442.062C1971.54 442.062 1950.5 437.015 1932.09 426.947C1913.65 416.878 1899.26 402.463 1888.89 383.75C1878.53 365.037 1873.35 343.151 1873.35 318.093C1873.35 293.034 1878.48 271.148 1888.69 252.436C1898.91 233.723 1913.23 219.332 1931.67 209.239C1950.1 199.17 1971.26 194.124 1995.17 194.124C2019.08 194.124 2039.25 199.02 2057.38 208.814C2075.52 218.608 2089.71 232.573 2099.93 250.712C2110.15 268.85 2115.27 290.011 2115.27 314.22C2115.27 321.141 2114.85 328.336 2113.97 335.806H2113.95ZM2039.65 294.783C2039.65 282.116 2035.32 272.048 2026.68 264.553C2018.03 257.057 2007.24 253.31 1994.27 253.31C1981.31 253.31 1971.44 256.908 1962.97 264.103C1954.48 271.298 1949.2 281.542 1947.21 294.783H2039.65Z" fill="#00091A"/>
<path d="M448.057 126.943C391.869 145.705 321.84 191.65 256.732 256.758C191.625 321.866 145.68 391.87 126.967 448.083C85.6189 461.849 51.741 460.9 32.7784 441.962C5.74603 414.93 15.3148 357.467 52.1657 291.26C92.8392 287.563 150.701 254.984 202.867 202.843C255.008 150.702 287.537 92.8399 291.285 52.1414C357.467 15.2905 414.879 5.69674 441.936 32.7541C460.874 51.6917 461.873 85.5696 448.057 126.943ZM542.246 133.064C523.308 114.126 489.43 113.177 448.057 126.943C429.345 183.131 383.4 253.16 318.292 318.268C253.185 383.375 183.18 429.37 126.967 448.083C113.201 489.431 114.15 523.309 133.088 542.272C160.12 569.304 217.533 559.735 283.74 522.884C287.462 482.211 320.041 424.349 372.207 372.183C424.348 320.042 482.185 287.513 522.859 283.765C559.71 217.584 569.303 160.121 542.246 133.064ZM563.382 295.058C554.063 285.739 539.972 282.191 522.834 283.765C498.849 326.962 463.223 373.932 418.577 418.577C373.931 463.248 326.961 498.9 283.715 522.884C282.141 539.973 285.688 554.064 295.007 563.383C326.512 594.887 412.131 560.36 486.233 486.258C560.284 412.157 594.862 326.562 563.357 295.083L563.382 295.058ZM280.017 11.6678C248.513 -19.8366 162.894 14.6909 88.8418 88.7925C14.7152 162.894 -19.8373 248.463 11.6422 280.018C20.9611 289.337 35.0519 292.884 52.1907 291.26C76.1751 248.064 111.802 201.094 156.448 156.448C201.094 111.803 248.063 76.1258 291.31 52.1414C292.884 35.0526 289.336 20.9618 280.017 11.6429V11.6678Z" fill="#3263E9"/>
</g>
<defs>
<clipPath id="clip0_4292_378">
<rect width="2115.25" height="575" fill="white"/>
</clipPath>
</defs>
</svg>
