<svg width="2104" height="572" viewBox="0 0 2104 572" fill="none" xmlns="http://www.w3.org/2000/svg">
<g clip-path="url(#clip0_4289_366)">
<path d="M931.446 134.604V193.448H851.563V436.103H778.113V193.448H698.23V134.604H931.421H931.446Z" fill="white"/>
<path d="M1048.27 205.246C1061.16 197.671 1075.46 193.87 1091.21 193.87V271.592H1071.02C1052.69 271.592 1038.95 275.541 1029.78 283.391C1020.62 291.265 1016.05 305.075 1016.05 324.823V436.053H942.599V196.404H1016.05V236.345C1024.64 223.18 1035.37 212.798 1048.27 205.222V205.246Z" fill="white"/>
<path d="M1114.61 160.139C1106.46 152.563 1102.36 143.173 1102.36 132.021C1102.36 120.868 1106.44 111.056 1114.61 103.455C1122.78 95.8795 1133.29 92.0791 1146.18 92.0791C1159.07 92.0791 1169.16 95.8795 1177.3 103.455C1185.48 111.056 1189.55 120.57 1189.55 132.021C1189.55 143.471 1185.48 152.563 1177.3 160.139C1169.16 167.739 1158.77 171.515 1146.18 171.515C1133.59 171.515 1122.78 167.715 1114.61 160.139ZM1182.67 196.429V436.077H1109.22V196.429H1182.67Z" fill="white"/>
<path d="M1321.82 203.309C1334.71 196.429 1349.44 193.001 1366.06 193.001C1385.81 193.001 1403.71 198.019 1419.74 208.029C1435.76 218.064 1448.42 232.371 1457.74 250.976C1467.03 269.58 1471.7 291.215 1471.7 315.831C1471.7 340.447 1467.05 362.156 1457.74 380.885C1448.42 399.639 1435.76 414.095 1419.74 424.254C1403.69 434.414 1385.81 439.506 1366.06 439.506C1349.17 439.506 1334.41 436.127 1321.82 429.421C1309.23 422.689 1299.34 413.747 1292.19 402.57V436.078H1218.74V118.285H1292.19V230.384C1299.07 219.206 1308.93 210.19 1321.82 203.334V203.309ZM1381.73 272.66C1371.57 262.203 1359.03 256.987 1344.15 256.987C1329.27 256.987 1317.17 262.278 1306.99 272.884C1296.83 283.49 1291.74 297.947 1291.74 316.253C1291.74 334.56 1296.83 349.041 1306.99 359.623C1317.15 370.229 1329.54 375.52 1344.15 375.52C1358.76 375.52 1371.2 370.154 1381.51 359.424C1391.82 348.693 1396.96 334.162 1396.96 315.831C1396.96 297.5 1391.87 283.118 1381.71 272.66H1381.73Z" fill="white"/>
<path d="M1596.24 203.309C1609.13 196.429 1623.86 193.001 1640.48 193.001C1660.23 193.001 1678.14 198.019 1694.16 208.029C1710.18 218.064 1722.85 232.371 1732.16 250.976C1741.45 269.58 1746.12 291.215 1746.12 315.831C1746.12 340.447 1741.48 362.156 1732.16 380.885C1722.85 399.639 1710.18 414.095 1694.16 424.254C1678.11 434.414 1660.23 439.506 1640.48 439.506C1623.59 439.506 1608.84 436.127 1596.24 429.421C1583.65 422.689 1573.76 413.747 1566.61 402.57V436.078H1493.16V118.285H1566.61V230.384C1573.49 219.206 1583.35 210.19 1596.24 203.334V203.309ZM1656.15 272.66C1646 262.203 1633.45 256.987 1618.57 256.987C1603.69 256.987 1591.6 262.278 1581.41 272.884C1571.25 283.49 1566.16 297.947 1566.16 316.253C1566.16 334.56 1571.25 349.041 1581.41 359.623C1591.57 370.229 1603.97 375.52 1618.57 375.52C1633.18 375.52 1645.62 370.154 1655.93 359.424C1666.24 348.693 1671.38 334.162 1671.38 315.831C1671.38 297.5 1666.29 283.118 1656.13 272.66H1656.15Z" fill="white"/>
<path d="M1841.03 118.285V436.078H1767.58V118.285H1841.03Z" fill="white"/>
<path d="M2101.72 333.864H1935.52C1936.66 348.743 1941.46 360.144 1949.9 368.018C1958.35 375.892 1968.73 379.817 1981.03 379.817C1999.33 379.817 2012.1 372.092 2019.26 356.617H2097.42C2093.4 372.365 2086.17 386.548 2075.74 399.142C2065.28 411.735 2052.19 421.621 2036.44 428.775C2020.7 435.929 2003.09 439.505 1983.61 439.505C1960.14 439.505 1939.22 434.488 1920.92 424.478C1902.59 414.468 1888.28 400.135 1877.97 381.531C1867.66 362.926 1862.52 341.167 1862.52 316.253C1862.52 291.339 1867.61 269.58 1877.77 250.976C1887.93 232.371 1902.16 218.064 1920.49 208.029C1938.83 198.019 1959.86 193.001 1983.64 193.001C2007.41 193.001 2027.45 197.869 2045.49 207.606C2063.52 217.343 2077.63 231.229 2087.79 249.262C2097.95 267.295 2103.04 288.334 2103.04 312.403C2103.04 319.284 2102.62 326.437 2101.75 333.864H2101.72ZM2027.85 293.078C2027.85 280.485 2023.55 270.475 2014.96 263.023C2006.36 255.571 1995.63 251.845 1982.74 251.845C1969.85 251.845 1960.04 255.422 1951.62 262.576C1943.17 269.729 1937.93 279.913 1935.94 293.078H2027.85Z" fill="white"/>
<path d="M445.466 126.209C389.602 144.863 319.978 190.543 255.247 255.274C190.516 320.005 144.837 389.604 126.232 445.493C85.1233 459.179 51.4413 458.235 32.5884 439.407C5.71232 412.531 15.2257 355.401 51.8636 289.577C92.3018 285.9 149.829 253.51 201.694 201.671C253.533 149.831 285.874 92.3036 289.6 51.8404C355.399 15.2026 412.479 5.66432 439.38 32.5652C458.208 51.3933 459.202 85.0753 445.466 126.209ZM539.11 132.295C520.282 113.467 486.6 112.523 445.466 126.209C426.861 182.073 381.182 251.697 316.451 316.428C251.72 381.159 182.12 426.888 126.232 445.493C112.546 486.601 113.49 520.283 132.318 539.136C159.194 566.012 216.274 556.499 282.098 519.861C285.799 479.423 318.19 421.895 370.054 370.031C421.893 318.191 479.396 285.851 519.834 282.125C556.472 216.326 566.011 159.196 539.11 132.295ZM560.124 293.352C550.859 284.087 536.849 280.56 519.81 282.125C495.964 325.072 460.543 371.77 416.156 416.157C371.768 460.57 325.07 496.015 282.073 519.861C280.509 536.851 284.036 550.861 293.301 560.126C324.623 591.448 409.747 557.12 483.42 483.447C557.044 409.774 591.421 324.675 560.099 293.377L560.124 293.352ZM278.397 11.6009C247.075 -19.7214 161.951 14.6064 88.3276 88.2796C14.6296 161.953 -19.723 247.027 11.5744 278.399C20.8394 287.664 34.8487 291.191 51.8884 289.577C75.7341 246.63 111.155 199.932 155.542 155.544C199.93 111.157 246.628 75.6861 289.625 51.8404C291.189 34.8504 287.662 20.8411 278.397 11.5761V11.6009Z" fill="#3263E9"/>
</g>
<defs>
<clipPath id="clip0_4289_366">
<rect width="2103.01" height="571.675" fill="white"/>
</clipPath>
</defs>
</svg>
