<svg width="205" height="205" viewBox="0 0 205 205" fill="none" xmlns="http://www.w3.org/2000/svg">
<g clip-path="url(#clip0_4305_425)">
<path d="M171.018 205H33.982C15.214 205 0 189.786 0 171.018V33.982C0 15.214 15.214 0 33.982 0H171.018C189.786 0 205 15.214 205 33.982V171.018C205 189.786 189.786 205 171.018 205Z" fill="#0071F7"/>
<path d="M104.918 86.3129C94.2529 86.3129 84.9718 92.3123 80.2977 101.12C75.6219 92.3123 66.3457 86.3129 55.6729 86.3129C49.6396 86.3065 43.768 88.263 38.9445 91.8871V68.4058C38.9176 66.9461 38.3182 65.5554 37.2755 64.5335C36.2328 63.5116 34.8303 62.9403 33.3703 62.9429C30.3257 62.9429 27.8753 65.3717 27.8057 68.4058V114.645H27.8113C28.0571 129.827 40.4292 142.057 55.6729 142.057C66.3457 142.057 75.6219 136.052 80.2977 127.253C84.9718 136.052 94.2529 142.057 104.918 142.057C120.306 142.057 132.789 129.579 132.789 114.179C132.789 98.7875 120.306 86.3129 104.918 86.3129ZM55.6729 130.898C46.439 130.898 38.9445 123.418 38.9445 114.183C38.9445 104.952 46.439 97.471 55.6729 97.471C64.9059 97.471 72.3844 104.952 72.3844 114.179C72.3844 123.415 64.9059 130.898 55.6729 130.898ZM104.918 130.898C95.6823 130.898 88.1934 123.415 88.1934 114.179C88.1934 104.952 95.6823 97.471 104.918 97.471C114.151 97.471 121.636 104.952 121.636 114.179C121.636 123.415 114.151 130.898 104.918 130.898Z" fill="white"/>
<path d="M176.036 132.725L160.887 114.143L176.054 95.525C177.972 93.069 177.422 89.6392 174.775 87.8174C172.124 85.9797 168.405 86.4505 166.354 88.8336V88.8304L153.305 104.824L140.267 88.8304V88.8336C138.237 86.4505 134.495 85.9797 131.853 87.8174C129.21 89.6408 128.658 93.069 130.585 95.525H130.579L145.721 114.143L130.579 132.725H130.585C128.658 135.189 129.21 138.608 131.853 140.438C134.495 142.267 138.237 141.801 140.267 139.415L153.305 123.444L166.336 139.415C168.389 141.801 172.106 142.267 174.757 140.438C177.405 138.608 177.958 135.189 176.036 132.725Z" fill="white"/>
</g>
<defs>
<clipPath id="clip0_4305_425">
<rect width="205" height="205" fill="white"/>
</clipPath>
</defs>
</svg>
