<svg version="1.2" xmlns="http://www.w3.org/2000/svg" viewBox="0 0 1544 1544" width="1544" height="1544">
	<title>highhhh-svg</title>
	<style>
		.s0 { fill: #006dc7 } 
	</style>
	<path id="Layer" fill-rule="evenodd" class="s0" d="m771.6 1543.6c-426.7 0-771.6-345-771.6-771.8 0-426.8 344.9-771.8 771.6-771.8 426.6 0 771.5 345 771.5 771.8 0 426.8-344.9 771.8-771.5 771.8zm644.6-771.8c0-355.6-289.2-644.8-644.7-644.8-355.4 0-644.6 289.2-644.6 644.8 0 35.8 29.1 64.9 64.9 64.9 35.8 0 64.9-29.1 64.9-64.9 0-284 231-515 514.8-515 283.9 0 514.9 231 514.9 515 0 283.9-231 515-514.9 515-114.1 0-225.6-38.4-315.6-108.5l142.3-142.3c49.8 32.8 109.4 51.9 173.3 51.9 174.3 0 316.1-141.8 316.1-316.1 0-174.3-141.8-316.2-316.1-316.2-174.2 0-316 141.9-316 316.2 0 64 19.1 123.5 51.9 173.4l-191.7 191.7c-25 25-25 65.8 0 90.8 121.8 121.8 283.7 188.9 455.8 188.9 355.5 0 644.7-289.3 644.7-644.8zm-644.6 186.5c-103.1 0-186.5-83.4-186.5-186.5 0-103.1 83.4-186.5 186.5-186.5 103 0 186.4 83.4 186.4 186.5 0 103.1-83.4 186.5-186.4 186.5z"/>
</svg>