<svg width="547" height="534" viewBox="0 0 547 534" fill="none" xmlns="http://www.w3.org/2000/svg">
<path d="M279.364 304.762C363.522 304.762 431.745 236.539 431.745 152.381C431.745 68.2233 363.522 0 279.364 0C195.207 0 126.983 68.2233 126.983 152.381C126.983 236.539 195.207 304.762 279.364 304.762Z" fill="#036C70"/>
<path d="M406.349 431.746C483.493 431.746 546.031 369.208 546.031 292.063C546.031 214.919 483.493 152.381 406.349 152.381C329.204 152.381 266.666 214.919 266.666 292.063C266.666 369.208 329.204 431.746 406.349 431.746Z" fill="#1A9BA1"/>
<path d="M298.412 533.333C358.024 533.333 406.348 485.008 406.348 425.397C406.348 365.785 358.024 317.46 298.412 317.46C238.8 317.46 190.476 365.785 190.476 425.397C190.476 485.008 238.8 533.333 298.412 533.333Z" fill="#37C6D0"/>
<path opacity="0.1" d="M304.761 137.524V408.508C304.698 417.924 298.992 426.383 290.285 429.968C287.513 431.141 284.533 431.745 281.523 431.746H190.602C190.475 429.587 190.475 427.555 190.475 425.397C190.433 423.277 190.518 421.157 190.73 419.047C193.054 378.456 218.06 342.642 255.365 326.476V302.857C172.341 289.7 115.702 211.731 128.859 128.708C128.95 128.133 129.045 127.558 129.142 126.984C129.775 122.701 130.665 118.461 131.809 114.286H281.523C294.337 114.334 304.712 124.71 304.761 137.524Z" fill="black"/>
<path opacity="0.2" d="M268.826 126.984H129.143C115.032 209.858 170.776 288.479 253.649 302.59C256.159 303.017 258.679 303.381 261.206 303.682C221.841 322.349 193.156 375.365 190.717 419.047C190.506 421.157 190.421 423.277 190.463 425.396C190.463 427.555 190.463 429.587 190.59 431.746C190.819 436.014 191.371 440.259 192.241 444.444H268.812C278.229 444.381 286.688 438.675 290.273 429.968C291.445 427.196 292.05 424.216 292.051 421.206V150.222C292.002 137.413 281.634 127.04 268.826 126.984Z" fill="black"/>
<path opacity="0.2" d="M268.825 126.984H129.143C115.035 209.865 170.787 288.49 253.669 302.598C255.364 302.887 257.064 303.147 258.768 303.378C220.673 323.39 193.118 376.279 190.73 419.047H268.825C281.619 418.951 291.967 408.603 292.064 395.809V150.222C292.015 137.408 281.639 127.033 268.825 126.984Z" fill="black"/>
<path opacity="0.2" d="M256.127 126.984H129.143C115.821 205.225 164.848 280.572 241.778 300.089C212.648 333.37 194.782 375.005 190.73 419.047H256.127C268.941 418.999 279.316 408.623 279.365 395.809V150.222C279.358 137.391 268.958 126.991 256.127 126.984Z" fill="black"/>
<path d="M23.2762 126.984H256.089C268.944 126.984 279.365 137.405 279.365 150.26V383.073C279.365 395.928 268.944 406.349 256.089 406.349H23.2762C10.4211 406.349 0 395.928 0 383.073V150.26C0 137.405 10.4211 126.984 23.2762 126.984Z" fill="url(#paint0_linear_4304_420)"/>
<path d="M103.961 263.822C98.5064 260.204 93.9502 255.387 90.6406 249.739C87.4338 243.835 85.8354 237.192 86.0056 230.476C85.72 221.382 88.7888 212.501 94.6277 205.523C100.764 198.537 108.695 193.364 117.561 190.564C127.666 187.238 138.25 185.6 148.888 185.714C162.877 185.203 176.847 187.159 190.158 191.492V220.698C184.374 217.194 178.075 214.623 171.491 213.079C164.347 211.327 157.018 210.449 149.662 210.463C141.906 210.178 134.2 211.81 127.224 215.212C124.589 216.349 122.344 218.231 120.765 220.627C119.185 223.023 118.341 225.828 118.336 228.698C118.314 232.256 119.68 235.682 122.145 238.247C125.056 241.272 128.5 243.735 132.304 245.511C136.537 247.619 142.886 250.421 151.352 253.917C152.284 254.212 153.192 254.577 154.069 255.01C162.401 258.266 170.439 262.23 178.094 266.857C183.892 270.432 188.758 275.332 192.291 281.155C195.914 287.756 197.67 295.219 197.371 302.743C197.784 312.079 194.928 321.267 189.294 328.724C183.679 335.579 176.172 340.631 167.707 343.251C157.75 346.371 147.359 347.88 136.926 347.72C127.566 347.763 118.219 346.998 108.99 345.435C101.197 344.16 93.592 341.925 86.3485 338.781V307.987C93.2725 312.932 101.008 316.628 109.206 318.908C117.375 321.454 125.868 322.814 134.425 322.946C142.344 323.448 150.249 321.77 157.282 318.095C159.7 316.731 161.702 314.736 163.075 312.323C164.448 309.91 165.141 307.169 165.079 304.394C165.095 302.446 164.721 300.514 163.98 298.713C163.238 296.912 162.144 295.277 160.761 293.905C157.287 290.494 153.265 287.691 148.863 285.613C143.784 283.073 136.304 279.725 126.425 275.568C118.566 272.408 111.041 268.474 103.961 263.822Z" fill="white"/>
<defs>
<linearGradient id="paint0_linear_4304_420" x1="48.5314" y1="108.797" x2="230.834" y2="424.536" gradientUnits="userSpaceOnUse">
<stop stop-color="#058F92"/>
<stop offset="0.5" stop-color="#038489"/>
<stop offset="1" stop-color="#026D71"/>
</linearGradient>
</defs>
</svg>
